<svg xmlns="http://www.w3.org/2000/svg" width="28" height="28" viewBox="0 0 28 28" fill="none">
  <rect width="28" height="28" rx="6" fill="#4F46E5"/>
  <path d="M8 22L8 18C8 16 8.5 14 9.5 12.5L11 10C10.5 9.5 10 8.5 10 7.5C10 6 11 5 12.5 5C13 5 13.5 5.3 14 5.8L15.5 4L16.5 5L15 7C15.5 7.5 16 8.5 16 9.5C16 10.5 15.5 11 15 11.5L13 14C12 15.5 11.5 17 11.5 18L11.5 22Z" fill="white"/>
  <circle cx="12.5" cy="7.8" r="1" fill="#4F46E5"/>
  <rect x="17" y="13.5" width="5.5" height="2" rx="1" fill="white" opacity="0.8"/>
  <rect x="17" y="17.5" width="4" height="2" rx="1" fill="white" opacity="0.5"/>
  <rect x="17" y="21.5" width="5" height="2" rx="1" fill="white" opacity="0.3"/>
</svg>
